# xmcd CD database file
#
# Track frame offsets:
#	150
#	13777
#	27206
#	37396
#	50746
#	67565
#	79043
#	101044
#	112562
#	126213
#	144101
#	166946
#
# Disc length: 2497 seconds
#
# Revision: 0
# Processed by: cddbd v1.5.2PL0 Copyright (c) Steve Scherf et al.
# Submitted via: CDex 1.51
#
DISCID=9109bf0c
DTITLE=Heino - Deutsche Volkslieder
DYEAR=2004
DGENRE=Volksmusik
TTITLE0=Wir blasen zur Jagd-Medley
TTITLE1=Wir wandern zum Tor hinaus-Medley
TTITLE2=Laﬂt uns wandern-Medley
TTITLE3=Hohe Tannen
TTITLE4=Mein Heimatland-Medley
TTITLE5=O mia bella Napoli
TTITLE6=Fernweh-Medley
TTITLE7=Blumen-Medley
TTITLE8=Glocken vom Rhein
TTITLE9=Abschied von Hawaii-Medley
TTITLE10=Ronny-Medley
TTITLE11=Paul Abraham-Medley
EXTD=YEAR: 2004
EXTT0=
EXTT1=
EXTT2=
EXTT3=
EXTT4=
EXTT5=
EXTT6=
EXTT7=
EXTT8=
EXTT9=
EXTT10=
EXTT11=
PLAYORDER=
